<svg width="3882" height="2511" xmlns="http://www.w3.org/2000/svg" xmlns:xlink="http://www.w3.org/1999/xlink" xml:space="preserve" overflow="hidden"><defs><clipPath id="clip0"><rect x="142" y="-18" width="3882" height="2511"/></clipPath></defs><g clip-path="url(#clip0)" transform="translate(-142 18)"><path d="M157 1237.5C157 554.048 1018.85 0 2082 0 3145.15-3.15101e-13 4007 554.048 4007 1237.5 4007 1920.95 3145.15 2475 2082 2475 1018.85 2475 157 1920.95 157 1237.5Z" stroke="#7F7F7F" stroke-width="27.5" stroke-linecap="butt" stroke-linejoin="miter" stroke-miterlimit="8" stroke-opacity="1" fill="#FFFFFF" fill-rule="evenodd" fill-opacity="1"/><text fill="#000000" fill-opacity="1" font-family="Meiryo,Meiryo_MSFontService,sans-serif" font-style="normal" font-variant="normal" font-weight="400" font-stretch="normal" font-size="147" text-anchor="start" direction="ltr" writing-mode="lr-tb" unicode-bidi="normal" text-decoration="none" transform="matrix(1 0 0 1 1788.81 503)">人工知能</text><path d="M1279 1945C1279 1670.51 1638.74 1448 2082.5 1448 2526.26 1448 2886 1670.51 2886 1945 2886 2219.49 2526.26 2442 2082.5 2442 1638.74 2442 1279 2219.49 1279 1945Z" stroke="#7F7F7F" stroke-width="27.5" stroke-linecap="butt" stroke-linejoin="miter" stroke-miterlimit="8" stroke-opacity="1" fill="#D9D9D9" fill-rule="evenodd" fill-opacity="1"/><text fill="#000000" fill-opacity="1" font-family="Meiryo,Meiryo_MSFontService,sans-serif" font-style="normal" font-variant="normal" font-weight="400" font-stretch="normal" font-size="147" text-anchor="start" direction="ltr" writing-mode="lr-tb" unicode-bidi="normal" text-decoration="none" transform="matrix(1 0 0 1 1788.81 1734)">機械学習</text><path d="M1660 2224C1660 2135.08 1848.94 2063 2082 2063 2315.06 2063 2504 2135.08 2504 2224 2504 2312.92 2315.06 2385 2082 2385 1848.94 2385 1660 2312.92 1660 2224Z" stroke="#7F7F7F" stroke-width="27.5" stroke-linecap="butt" stroke-linejoin="miter" stroke-miterlimit="8" stroke-opacity="1" fill="#FFFFFF" fill-rule="evenodd" fill-opacity="1"/><text fill="#000000" fill-opacity="1" font-family="Meiryo,Meiryo_MSFontService,sans-serif" font-style="normal" font-variant="normal" font-weight="400" font-stretch="normal" font-size="55" text-anchor="start" direction="ltr" writing-mode="lr-tb" unicode-bidi="normal" text-decoration="none" transform="matrix(1 0 0 1 1862.14 2173)">ニューラルネット</text><path d="M1790 2299C1790 2258.13 1920.73 2225 2082 2225 2243.27 2225 2374 2258.13 2374 2299 2374 2339.87 2243.27 2373 2082 2373 1920.73 2373 1790 2339.87 1790 2299Z" stroke="#7F7F7F" stroke-width="27.5" stroke-linecap="butt" stroke-linejoin="miter" stroke-miterlimit="8" stroke-opacity="1" fill="#F2F2F2" fill-rule="evenodd" fill-opacity="1"/><text fill="#000000" fill-opacity="1" font-family="Meiryo,Meiryo_MSFontService,sans-serif" font-style="normal" font-variant="normal" font-weight="400" font-stretch="normal" font-size="48" text-anchor="start" direction="ltr" writing-mode="lr-tb" unicode-bidi="normal" text-decoration="none" transform="matrix(1 0 0 1 1985.89 2304)">ディープ</text><text fill="#000000" fill-opacity="1" font-family="Meiryo,Meiryo_MSFontService,sans-serif" font-style="normal" font-variant="normal" font-weight="400" font-stretch="normal" font-size="48" text-anchor="start" direction="ltr" writing-mode="lr-tb" unicode-bidi="normal" text-decoration="none" transform="matrix(1 0 0 1 1961.83 2362)">ラーニング</text></g></svg>